<?xml version="1.0" encoding="UTF-8"?>
<svg version="1.1" xmlns="http://www.w3.org/2000/svg" width="318" height="159">
<path d="M0 0 C2.19140625 1.1171875 2.19140625 1.1171875 4.25 2.375 C5.02214844 2.81070313 5.79429687 3.24640625 6.58984375 3.6953125 C15.62295276 9.19634062 22.86378684 17.60737905 26 27.81640625 C29.07964498 41.48233085 27.09945704 54.7253601 19.65234375 66.64453125 C19.18957031 67.21558594 18.72679687 67.78664063 18.25 68.375 C17.59 68.375 16.93 68.375 16.25 68.375 C16.01152344 68.9628125 15.77304688 69.550625 15.52734375 70.15625 C11.90454416 76.44906397 3.26579918 80.52277119 -3.44140625 82.7109375 C-15.3671277 85.10452976 -28.09572247 84.6430736 -38.75 78.375 C-45.20360983 73.52602414 -51.25942046 67.82230814 -54.875 60.5 C-55.18695313 59.88382813 -55.49890625 59.26765625 -55.8203125 58.6328125 C-59.9226446 48.67000598 -60.60782718 36.5752892 -57.0625 26.3125 C-51.29638885 13.01227149 -43.11854089 5.09871603 -29.75 -0.625 C-21.3735942 -3.41713527 -8.22474248 -3.15129243 0 0 Z " fill="#4A64E7" transform="translate(174.75,38.625)"/>
<path d="M0 0 C0.33 0 0.66 0 1 0 C1.09919164 6.13805474 1.17162165 12.27563853 1.21972656 18.41430664 C1.23978913 20.50065239 1.2670459 22.58694227 1.30175781 24.6730957 C1.35051159 27.67933978 1.37302267 30.68483769 1.390625 33.69140625 C1.41127014 34.61772354 1.43191528 35.54404083 1.45318604 36.49842834 C1.45525983 42.54142976 0.51329508 46.04525857 -3 51 C-6.4200766 53.81363002 -10.17347447 54.86716554 -14.5 55.5625 C-19.11557838 54.82071062 -22.5023047 53.10104944 -26 50 C-27.38361304 48.03444849 -28.72654875 46.03865144 -30 44 C-30.71027344 44.7940625 -31.42054688 45.588125 -32.15234375 46.40625 C-33.0805853 47.4376295 -34.00897854 48.46887249 -34.9375 49.5 C-35.40607422 50.02464844 -35.87464844 50.54929688 -36.35742188 51.08984375 C-37.55095408 52.4121744 -38.77334179 53.70833939 -40 55 C-40.33 55 -40.66 55 -41 55 C-41.09908722 48.8436347 -41.17157253 42.6877365 -41.21972656 36.53076172 C-41.23980659 34.43758047 -41.2670764 32.34445508 -41.30175781 30.25146484 C-41.35043434 27.23781531 -41.37300512 24.22490927 -41.390625 21.2109375 C-41.41127014 20.27945892 -41.43191528 19.34798035 -41.45318604 18.38827515 C-41.45558945 11.38415892 -39.5157659 7.987472 -35 2.625 C-30.16995299 0.00872453 -25.36459332 0.28666195 -20 1 C-14.95818874 3.34084094 -12.961129 6.42028777 -10 11 C-9.28972656 10.2059375 -8.57945312 9.411875 -7.84765625 8.59375 C-6.9194147 7.5623705 -5.99102146 6.53112751 -5.0625 5.5 C-4.59392578 4.97535156 -4.12535156 4.45070313 -3.64257812 3.91015625 C-2.44904592 2.5878256 -1.22665821 1.29166061 0 0 Z " fill="#FBFCFE" transform="translate(179,52)"/>
<path d="M0 0 C7.12408759 0.23357664 7.12408759 0.23357664 10.5 3.1875 C12.29238294 6.54821801 12.41474152 8.23004619 12 12 C10.27734375 14.7109375 10.27734375 14.7109375 7.9375 17.375 C7.12023437 18.31730469 6.30296875 19.25960937 5.4609375 20.23046875 C4.64882812 21.14441406 3.83671875 22.05835937 3 23 C2.31164062 23.82113281 1.62328125 24.64226562 0.9140625 25.48828125 C-2.52932378 29.57821053 -2.52932378 29.57821053 -4 31 C-4.66 31 -5.32 31 -6 31 C-6.14547545 26.93787788 -6.23413226 22.87642713 -6.3125 18.8125 C-6.35439453 17.66201172 -6.39628906 16.51152344 -6.43945312 15.32617188 C-6.56071766 6.95891927 -6.56071766 6.95891927 -4.89990234 4.11865234 C-3.54296875 2.76171875 -3.54296875 2.76171875 -1 1 C-0.67 0.67 -0.34 0.34 0 0 Z " fill="#516BEF" transform="translate(150,59)"/>
<path d="M0 0 C0.33 0 0.66 0 1 0 C1.08732726 3.89569135 1.14050185 7.79112982 1.1875 11.6875 C1.21263672 12.79029297 1.23777344 13.89308594 1.26367188 15.02929688 C1.27333984 16.09599609 1.28300781 17.16269531 1.29296875 18.26171875 C1.3086792 19.24100342 1.32438965 20.22028809 1.34057617 21.22924805 C0.93577339 24.52251457 -0.0417397 26.34115396 -2 29 C-5.51253146 31.34168764 -6.86469356 31.49623677 -11 31 C-13.69990662 29.20006226 -15.5418865 27.916227 -17 25 C-17.4117085 21.33020323 -17.40517055 19.58616511 -15.27734375 16.5078125 C-14.50519531 15.72148438 -13.73304688 14.93515625 -12.9375 14.125 C-11.71353516 12.84689453 -11.71353516 12.84689453 -10.46484375 11.54296875 C-9.65144531 10.70378906 -8.83804688 9.86460938 -8 9 C-6.65644396 7.48819017 -5.32190785 5.96827479 -4 4.4375 C-1.09230769 1.09230769 -1.09230769 1.09230769 0 0 Z " fill="#506AEF" transform="translate(173,69)"/>
</svg>
